<?xml version="1.0" encoding="UTF-8"?>
<svg version="1.1" xmlns="http://www.w3.org/2000/svg" width="512" height="512">
<path d="M0 0 C0.65213327 -0.00265183 1.30426654 -0.00530365 1.97616142 -0.00803584 C4.17061312 -0.01572105 6.36500878 -0.01628771 8.55947304 -0.01688576 C10.1451216 -0.02090092 11.73076913 -0.02533923 13.31641543 -0.03016531 C17.6813562 -0.04213111 22.04628591 -0.0477793 26.41123986 -0.05234647 C31.11632846 -0.05830268 35.82140385 -0.06991263 40.52648354 -0.08063698 C51.89464939 -0.10516281 63.26281962 -0.11978957 74.6310038 -0.13269705 C77.84253129 -0.13640922 81.05405836 -0.14038244 84.26558542 -0.14444971 C104.21245805 -0.16968942 124.15933136 -0.1917407 144.10621643 -0.20417786 C148.72691666 -0.20710752 153.34761686 -0.21006919 157.96831703 -0.21308327 C159.11675998 -0.21382932 160.26520293 -0.21457537 161.44844718 -0.21534403 C180.04297841 -0.22799139 198.63741389 -0.26120579 217.23190038 -0.3028851 C236.3270448 -0.34533527 255.42214024 -0.36887657 274.51733172 -0.37409842 C285.23662784 -0.37750932 295.9557744 -0.3892265 306.67502403 -0.42220116 C315.80645716 -0.45024534 324.93771007 -0.46118188 334.06918292 -0.4500057 C338.72515182 -0.44482999 343.38074357 -0.44763477 348.03665733 -0.47247124 C352.30698412 -0.49505975 356.57666494 -0.49415003 360.84700377 -0.47526737 C362.38414417 -0.47248071 363.92132929 -0.47799093 365.45839815 -0.4930803 C384.86658263 -0.67181521 400.95896683 6.83539795 414.76861 20.33232689 C420.99717138 26.6847517 425.76287617 33.11975304 429.83111 41.01201439 C430.15692055 41.63551781 430.48273109 42.25902122 430.81841469 42.90141869 C436.15700685 53.79664645 436.95786497 64.87786855 436.89956093 76.81169701 C436.90302393 78.36855442 436.90779278 79.92540938 436.91374266 81.48225927 C436.92619416 85.73044077 436.92010913 89.97841846 436.91078401 94.22660041 C436.90396972 98.81972259 436.9144865 103.4128108 436.92272377 108.00592613 C436.93603798 116.99202699 436.93319368 125.97805251 436.92448585 134.96415627 C436.9177006 142.26974232 436.91679622 149.57530731 436.9200573 156.88089561 C436.920517 157.92211625 436.92097669 158.96333688 436.92145032 160.03610966 C436.92240954 162.15157148 436.92338218 164.2670333 436.9243681 166.38249511 C436.93291522 186.20212426 436.9230985 206.02171173 436.906967 225.84133404 C436.89356444 242.833958 436.89589272 259.82652045 436.90972328 276.8191433 C436.92579106 296.56962995 436.93209131 316.3200801 436.92288649 336.07057238 C436.92193088 338.17809263 436.92098777 340.2856129 436.9200573 342.39313316 C436.91959447 343.42997434 436.91913164 344.46681551 436.91865479 345.53507611 C436.9160685 352.82878433 436.92042811 360.12246932 436.92749596 367.41617393 C436.93592447 376.30920128 436.93360242 385.20214922 436.91765372 394.09516752 C436.9097892 398.62932858 436.90664831 403.16335742 436.91660118 407.6975174 C436.92558637 411.85380863 436.92055272 416.00984596 436.90466852 420.16611439 C436.90133684 421.66393792 436.90297818 423.16178321 436.91029589 424.65959257 C436.96445936 436.67415728 435.44283741 447.51638982 429.83111 458.26201439 C429.48370766 458.93941673 429.13630531 459.61681908 428.77837563 460.31474876 C425.67870057 466.17341388 421.99684949 471.24281194 417.51861 476.13701439 C416.92821938 476.81892845 416.33782875 477.50084251 415.7295475 478.20342064 C404.72670995 490.16608019 387.5378285 499.39682701 371.23705137 500.32358229 C367.23763136 500.3976968 363.24254146 500.40878697 359.2426548 500.3977108 C357.69251281 500.40073444 356.14237231 500.40462498 354.59223443 500.40930337 C350.34871831 500.41956485 346.10528685 500.41740626 341.86176383 500.41312277 C337.27881837 500.41065218 332.69589312 500.41967388 328.11295509 500.42716026 C319.14049672 500.43990022 310.16806828 500.44170181 301.19560238 500.43936 C293.90091237 500.43757582 286.60623144 500.43932864 279.31154251 500.44358444 C277.7532649 500.44447723 277.7532649 500.44447723 276.16350693 500.44538805 C274.05295751 500.44659982 271.94240809 500.44781395 269.83185867 500.44903042 C250.0451592 500.45990335 230.25847678 500.4577447 210.47177634 500.45164558 C192.38062625 500.44647722 174.28953001 500.45773018 156.19839057 500.47674379 C137.61159863 500.49612821 119.02483217 500.5043771 100.43803006 500.50062054 C90.00731879 500.49870934 79.57665334 500.50118813 69.14595032 500.51533508 C60.26566463 500.52725756 51.38545298 500.52864406 42.50516625 500.51654492 C37.97709813 500.51066221 33.44916539 500.50953995 28.92110634 500.52154732 C24.77025238 500.53242621 20.6196465 500.52927902 16.46880404 500.51528563 C14.97290725 500.51264421 13.47699089 500.51498771 11.98111334 500.5230215 C-0.02922029 500.58301088 -10.86484897 499.05910924 -21.60639 493.44951439 C-22.28379234 493.10211205 -22.96119469 492.7547097 -23.65912437 492.39678001 C-29.51778949 489.29710496 -34.58718755 485.61525388 -39.48139 481.13701439 C-40.50426109 480.25142845 -40.50426109 480.25142845 -41.54779625 479.34795189 C-53.51252031 468.34321547 -62.74289668 451.15240367 -63.6679579 434.84889543 C-63.74208312 430.83901118 -63.75316138 426.83344527 -63.74208641 422.82309532 C-63.74511003 421.26882854 -63.74900056 419.71456324 -63.75367898 418.16030055 C-63.76394072 413.90538292 -63.76178181 409.65054973 -63.75749838 405.39562523 C-63.75502783 400.80040974 -63.76404944 396.20521441 -63.77153587 391.61000633 C-63.78427596 382.61348451 -63.78607741 373.61699254 -63.78373561 364.62046321 C-63.78195144 357.30622706 -63.78370422 349.99199996 -63.78796005 342.67776489 C-63.78855524 341.63613779 -63.78915043 340.59451069 -63.78976366 339.52131912 C-63.79097543 337.4051327 -63.79218956 335.28894629 -63.79340603 333.17275987 C-63.80427901 313.33312529 -63.80212028 293.49350771 -63.79602119 273.65387217 C-63.79085282 255.51422318 -63.8021058 237.37462791 -63.82111941 219.23498955 C-63.8405037 200.59847708 -63.84875273 181.96199002 -63.84499615 163.32546741 C-63.84308494 152.8668105 -63.84556391 142.4081993 -63.85971069 131.94955063 C-63.87163302 123.04547643 -63.87301984 114.14147608 -63.86092053 105.23740085 C-63.85503772 100.69718126 -63.85391586 96.15709668 -63.86592293 91.61688614 C-63.87680146 87.45492987 -63.87365505 83.29322102 -63.85966124 79.13127623 C-63.85701972 77.63134178 -63.85936363 76.13138781 -63.86739711 74.63147255 C-63.9272829 62.60909352 -62.40933794 51.76476322 -56.79389 41.01201439 C-56.44648766 40.33461205 -56.09908531 39.6572097 -55.74115562 38.95928001 C-52.64148057 33.1006149 -48.95962949 28.03121684 -44.48139 23.13701439 C-43.89099937 22.45510033 -43.30060875 21.77318626 -42.6923275 21.07060814 C-32.19563652 9.65824838 -15.70281432 0.03145565 0 0 Z " fill="#ECC22E" transform="translate(69.48138999938965,5.862985610961914)"/>
<path d="M0 0 C0.65213327 -0.00265183 1.30426654 -0.00530365 1.97616142 -0.00803584 C4.17061312 -0.01572105 6.36500878 -0.01628771 8.55947304 -0.01688576 C10.1451216 -0.02090092 11.73076913 -0.02533923 13.31641543 -0.03016531 C17.6813562 -0.04213111 22.04628591 -0.0477793 26.41123986 -0.05234647 C31.11632846 -0.05830268 35.82140385 -0.06991263 40.52648354 -0.08063698 C51.89464939 -0.10516281 63.26281962 -0.11978957 74.6310038 -0.13269705 C77.84253129 -0.13640922 81.05405836 -0.14038244 84.26558542 -0.14444971 C104.21245805 -0.16968942 124.15933136 -0.1917407 144.10621643 -0.20417786 C148.72691666 -0.20710752 153.34761686 -0.21006919 157.96831703 -0.21308327 C159.11675998 -0.21382932 160.26520293 -0.21457537 161.44844718 -0.21534403 C180.04297841 -0.22799139 198.63741389 -0.26120579 217.23190038 -0.3028851 C236.3270448 -0.34533527 255.42214024 -0.36887657 274.51733172 -0.37409842 C285.23662784 -0.37750932 295.9557744 -0.3892265 306.67502403 -0.42220116 C315.80645716 -0.45024534 324.93771007 -0.46118188 334.06918292 -0.4500057 C338.72515182 -0.44482999 343.38074357 -0.44763477 348.03665733 -0.47247124 C352.30698412 -0.49505975 356.57666494 -0.49415003 360.84700377 -0.47526737 C362.38414417 -0.47248071 363.92132929 -0.47799093 365.45839815 -0.4930803 C384.86658263 -0.67181521 400.95896683 6.83539795 414.76861 20.33232689 C420.99717138 26.6847517 425.76287617 33.11975304 429.83111 41.01201439 C430.15692055 41.63551781 430.48273109 42.25902122 430.81841469 42.90141869 C436.15700685 53.79664645 436.95786497 64.87786855 436.89956093 76.81169701 C436.90302393 78.36855442 436.90779278 79.92540938 436.91374266 81.48225927 C436.92619416 85.73044077 436.92010913 89.97841846 436.91078401 94.22660041 C436.90396972 98.81972259 436.9144865 103.4128108 436.92272377 108.00592613 C436.93603798 116.99202699 436.93319368 125.97805251 436.92448585 134.96415627 C436.9177006 142.26974232 436.91679622 149.57530731 436.9200573 156.88089561 C436.920517 157.92211625 436.92097669 158.96333688 436.92145032 160.03610966 C436.92240954 162.15157148 436.92338218 164.2670333 436.9243681 166.38249511 C436.93291522 186.20212426 436.9230985 206.02171173 436.906967 225.84133404 C436.89356444 242.833958 436.89589272 259.82652045 436.90972328 276.8191433 C436.92579106 296.56962995 436.93209131 316.3200801 436.92288649 336.07057238 C436.92193088 338.17809263 436.92098777 340.2856129 436.9200573 342.39313316 C436.91959447 343.42997434 436.91913164 344.46681551 436.91865479 345.53507611 C436.9160685 352.82878433 436.92042811 360.12246932 436.92749596 367.41617393 C436.93592447 376.30920128 436.93360242 385.20214922 436.91765372 394.09516752 C436.9097892 398.62932858 436.90664831 403.16335742 436.91660118 407.6975174 C436.92558637 411.85380863 436.92055272 416.00984596 436.90466852 420.16611439 C436.90133684 421.66393792 436.90297818 423.16178321 436.91029589 424.65959257 C436.96445936 436.67415728 435.44283741 447.51638982 429.83111 458.26201439 C429.48370766 458.93941673 429.13630531 459.61681908 428.77837563 460.31474876 C425.67870057 466.17341388 421.99684949 471.24281194 417.51861 476.13701439 C416.92821938 476.81892845 416.33782875 477.50084251 415.7295475 478.20342064 C404.72670995 490.16608019 387.5378285 499.39682701 371.23705137 500.32358229 C367.23763136 500.3976968 363.24254146 500.40878697 359.2426548 500.3977108 C357.69251281 500.40073444 356.14237231 500.40462498 354.59223443 500.40930337 C350.34871831 500.41956485 346.10528685 500.41740626 341.86176383 500.41312277 C337.27881837 500.41065218 332.69589312 500.41967388 328.11295509 500.42716026 C319.14049672 500.43990022 310.16806828 500.44170181 301.19560238 500.43936 C293.90091237 500.43757582 286.60623144 500.43932864 279.31154251 500.44358444 C277.7532649 500.44447723 277.7532649 500.44447723 276.16350693 500.44538805 C274.05295751 500.44659982 271.94240809 500.44781395 269.83185867 500.44903042 C250.0451592 500.45990335 230.25847678 500.4577447 210.47177634 500.45164558 C192.38062625 500.44647722 174.28953001 500.45773018 156.19839057 500.47674379 C137.61159863 500.49612821 119.02483217 500.5043771 100.43803006 500.50062054 C90.00731879 500.49870934 79.57665334 500.50118813 69.14595032 500.51533508 C60.26566463 500.52725756 51.38545298 500.52864406 42.50516625 500.51654492 C37.97709813 500.51066221 33.44916539 500.50953995 28.92110634 500.52154732 C24.77025238 500.53242621 20.6196465 500.52927902 16.46880404 500.51528563 C14.97290725 500.51264421 13.47699089 500.51498771 11.98111334 500.5230215 C-0.02922029 500.58301088 -10.86484897 499.05910924 -21.60639 493.44951439 C-22.28379234 493.10211205 -22.96119469 492.7547097 -23.65912437 492.39678001 C-29.51778949 489.29710496 -34.58718755 485.61525388 -39.48139 481.13701439 C-40.50426109 480.25142845 -40.50426109 480.25142845 -41.54779625 479.34795189 C-53.51252031 468.34321547 -62.74289668 451.15240367 -63.6679579 434.84889543 C-63.74208312 430.83901118 -63.75316138 426.83344527 -63.74208641 422.82309532 C-63.74511003 421.26882854 -63.74900056 419.71456324 -63.75367898 418.16030055 C-63.76394072 413.90538292 -63.76178181 409.65054973 -63.75749838 405.39562523 C-63.75502783 400.80040974 -63.76404944 396.20521441 -63.77153587 391.61000633 C-63.78427596 382.61348451 -63.78607741 373.61699254 -63.78373561 364.62046321 C-63.78195144 357.30622706 -63.78370422 349.99199996 -63.78796005 342.67776489 C-63.78855524 341.63613779 -63.78915043 340.59451069 -63.78976366 339.52131912 C-63.79097543 337.4051327 -63.79218956 335.28894629 -63.79340603 333.17275987 C-63.80427901 313.33312529 -63.80212028 293.49350771 -63.79602119 273.65387217 C-63.79085282 255.51422318 -63.8021058 237.37462791 -63.82111941 219.23498955 C-63.8405037 200.59847708 -63.84875273 181.96199002 -63.84499615 163.32546741 C-63.84308494 152.8668105 -63.84556391 142.4081993 -63.85971069 131.94955063 C-63.87163302 123.04547643 -63.87301984 114.14147608 -63.86092053 105.23740085 C-63.85503772 100.69718126 -63.85391586 96.15709668 -63.86592293 91.61688614 C-63.87680146 87.45492987 -63.87365505 83.29322102 -63.85966124 79.13127623 C-63.85701972 77.63134178 -63.85936363 76.13138781 -63.86739711 74.63147255 C-63.9272829 62.60909352 -62.40933794 51.76476322 -56.79389 41.01201439 C-56.44648766 40.33461205 -56.09908531 39.6572097 -55.74115562 38.95928001 C-52.64148057 33.1006149 -48.95962949 28.03121684 -44.48139 23.13701439 C-43.89099937 22.45510033 -43.30060875 21.77318626 -42.6923275 21.07060814 C-32.19563652 9.65824838 -15.70281432 0.03145565 0 0 Z M-17.48139 53.13701439 C-26.87027606 65.61775775 -30.09491892 78.16934505 -29.9960537 93.69692039 C-30.00139178 95.12051313 -30.00846466 96.54410021 -30.01710075 97.96767676 C-30.03558827 101.84301246 -30.02947166 105.7179624 -30.01894772 109.59331322 C-30.01191582 113.78703619 -30.02798377 117.98068307 -30.04094505 122.17438316 C-30.06252425 130.37596468 -30.06247375 138.57740711 -30.05431951 146.77900766 C-30.04800493 153.44906306 -30.04916988 160.11907808 -30.05559158 166.78913307 C-30.05649324 167.74054049 -30.05739489 168.6919479 -30.05832387 169.67218585 C-30.06017518 171.60532494 -30.06203775 173.53846403 -30.06391143 175.47160311 C-30.08046889 193.57643176 -30.07178838 211.68118235 -30.05492585 229.78600629 C-30.04023266 246.32618917 -30.0548556 262.86619034 -30.08369602 279.40634982 C-30.1131343 296.41693028 -30.12404926 313.42742699 -30.11451381 330.43803179 C-30.11349133 332.36444257 -30.11249672 334.29085337 -30.1115303 336.21726418 C-30.11105391 337.1649367 -30.11057752 338.11260922 -30.1100867 339.08899909 C-30.10792832 345.74463807 -30.11769596 352.40019725 -30.13230133 359.05581856 C-30.14987346 367.17620693 -30.14963764 375.29636379 -30.12694968 383.41674326 C-30.11585131 387.55442808 -30.112544 391.69170578 -30.13125038 395.82937241 C-30.14819747 399.62697498 -30.14151504 403.42381984 -30.11703359 407.22137459 C-30.10992781 409.22481864 -30.12706141 411.2283051 -30.14544493 413.23167741 C-29.99015494 428.52835944 -24.7177529 442.41162703 -14.35639 453.82451439 C-1.63636463 465.63596651 13.00675363 469.76046058 30.04055214 469.65167809 C31.46002009 469.65701623 32.87948238 469.66408915 34.2989341 469.67272514 C38.1628686 469.69121185 42.02641619 469.68509634 45.89036584 469.67457211 C50.07181886 469.66753998 54.25319555 469.68360833 58.43462563 469.69656944 C66.61214379 469.71814826 74.78952247 469.71809824 82.96705972 469.7099439 C89.61756901 469.70362923 96.26803779 469.70479435 102.91854668 469.71121597 C103.86717873 469.71211763 104.81581078 469.71301928 105.79318926 469.71394826 C107.72069136 469.71579957 109.64819345 469.71766214 111.57569553 469.71953582 C129.62758913 469.73609315 147.67940445 469.72741288 165.73129334 469.71055024 C182.22297747 469.69585707 198.71447936 469.71047998 215.20614003 469.7393204 C232.16699999 469.76875896 249.12777598 469.77967357 266.08866036 469.7701382 C268.00945416 469.76911572 269.93024797 469.76812111 271.85104179 469.76715469 C272.7959502 469.7666783 273.74085861 469.76620191 274.71440061 469.76571109 C281.35050303 469.76355274 287.98652541 469.77332016 294.62261009 469.78792572 C302.71921013 469.80549819 310.81557797 469.80526155 318.91216908 469.78257407 C323.03770272 469.771476 327.16282804 469.76816769 331.28834343 469.78687477 C335.07484424 469.80382272 338.86058515 469.79713833 342.647038 469.77265798 C344.64451719 469.76555273 346.64203891 469.78268508 348.63944614 469.80106932 C363.94303557 469.64526566 377.93611407 464.36706593 389.26861 453.88701439 C401.01606935 441.18402007 405.3021262 426.25015636 405.14679909 409.3231411 C405.15185944 407.89639512 405.15909965 406.46965555 405.16829723 405.04293025 C405.18703495 401.16815627 405.17509207 397.29402287 405.1575743 393.41926622 C405.14410346 389.22289082 405.1596718 385.02660326 405.17139626 380.83023643 C405.18970434 372.62822102 405.18130686 364.426445 405.16330803 356.22443722 C405.14924208 349.55536245 405.14539779 342.88635236 405.14875031 336.21726418 C405.14922775 335.26555029 405.14970519 334.31383641 405.1501971 333.33328272 C405.1512235 331.39949522 405.15227886 329.46570774 405.15336286 327.53192027 C405.16191586 310.46110968 405.14529947 293.39041416 405.11553383 276.31963158 C405.08669078 259.77759024 405.07961902 243.23571461 405.09502602 226.69365501 C405.11180756 208.65123763 405.11580317 190.60889878 405.09831566 172.56647933 C405.09647139 170.64069725 405.09463666 168.71491517 405.09281158 166.78913307 C405.09189949 165.8417691 405.0909874 164.89440513 405.09004768 163.91833317 C405.08445513 157.26074844 405.0877374 150.60320221 405.09435654 143.94561958 C405.10210795 135.82743336 405.09527192 127.7094099 405.0701815 119.59125637 C405.05772936 115.45386605 405.0514876 111.31672859 405.06272316 107.17932892 C405.0728336 103.384459 405.06416308 99.59009115 405.04114198 95.79528184 C405.03361703 93.78848209 405.04546844 91.78163774 405.05824572 89.77486455 C404.90946376 73.36630697 399.1696933 60.33223676 387.98345375 48.45732689 C375.88427132 37.06760523 360.9089846 33.36003001 344.74270058 33.5088253 C343.32007938 33.50376488 341.89746459 33.49652462 340.47486413 33.48732716 C336.61149105 33.46859038 332.7487605 33.48053177 328.88540483 33.49805009 C324.70129939 33.51152145 320.51728203 33.49595241 316.3331852 33.48422813 C308.155233 33.46592043 299.97752092 33.47431727 291.79957639 33.49231636 C285.15004772 33.50638253 278.50058391 33.51022655 271.85104179 33.50687408 C270.90210327 33.50639664 269.95316475 33.5059192 268.97547052 33.50542729 C267.04732002 33.50440089 265.11916954 33.50334553 263.19101907 33.50226153 C246.17012264 33.4937086 229.14934162 33.51032467 212.12847328 33.54009056 C195.63493441 33.56893362 179.14156172 33.57600534 162.64800453 33.56059837 C144.65832479 33.5438167 126.66872381 33.53982134 108.67904198 33.55730873 C106.75887689 33.559153 104.83871179 33.56098773 102.91854668 33.56281281 C101.97394682 33.56372489 101.02934696 33.56463698 100.05612286 33.56557671 C93.41807476 33.57116918 86.78006527 33.56788707 80.14201927 33.56126785 C72.04762143 33.55351631 63.95338683 33.56035292 55.85902177 33.58544289 C51.73378281 33.59789474 47.60879745 33.60413715 43.48354912 33.59290123 C39.6997812 33.58279035 35.91651679 33.59146221 32.13280965 33.61448241 C30.13197481 33.62200688 28.13109524 33.61015638 26.13028705 33.59737867 C8.77610952 33.75518606 -5.74011871 40.34056349 -17.48139 53.13701439 Z " fill="#9E863F" transform="translate(69.48138999938965,5.862985610961914)"/>
<path d="M0 0 C1.29744141 -0.04350586 1.29744141 -0.04350586 2.62109375 -0.08789062 C12.34235757 -0.18262558 20.31381147 3.71507597 27.375 10.3125 C39.53844981 23.19313435 39.35168409 43.02874025 38.99423218 59.60925293 C38.49181944 74.66237171 34.29620661 88.97703492 23.125 99.625 C15.43839338 105.54665617 8.34170942 106.67198696 -1.1875 106.75 C-2.0738916 106.76015137 -2.9602832 106.77030273 -3.87353516 106.78076172 C-12.84855216 106.66247209 -20.90783333 104.47934458 -27.625 98.3125 C-40.01648868 85.49476846 -41.09617216 67.16728499 -40.81640625 50.36328125 C-40.39951949 36.19699731 -36.86780753 20.65105566 -26.9375 10 C-19.06285885 2.60442448 -10.49508881 0.11424262 0 0 Z " fill="#FEFEFC" transform="translate(212.625,205.6875)"/>
<path d="M0 0 C0.82935059 0.00757324 1.65870117 0.01514648 2.51318359 0.02294922 C14.45175933 0.33961618 25.10067514 3.80922483 33.6953125 12.296875 C38.30506178 18.00009969 38.70363817 23.65849917 38.39453125 30.83984375 C37.04928684 39.15507935 31.44989698 44.64762589 24.8125 49.4375 C23.8225 49.9325 23.8225 49.9325 22.8125 50.4375 C23.47636719 50.87320313 24.14023437 51.30890625 24.82421875 51.7578125 C31.10575433 55.99441022 37.00267126 60.11014489 39.8125 67.4375 C40.75243605 76.63802784 41.35318236 85.70908648 35.6328125 93.46484375 C32.61243351 96.73800124 29.66935089 99.20039372 25.8125 101.4375 C25.05324219 101.92347656 24.29398437 102.40945313 23.51171875 102.91015625 C16.26755754 106.7629768 9.26825748 106.93041455 1.1875 107 C0.12668213 107.01466309 -0.93413574 107.02932617 -2.02709961 107.04443359 C-12.62529951 106.90751234 -22.12249994 103.4384752 -30.1875 96.4375 C-36.66291568 88.58935166 -39.0583772 81.55966289 -38.1875 71.4375 C-36.79569104 63.7618803 -31.39246683 57.38571922 -25.109375 52.98046875 C-23.50863011 52.05971508 -21.85285207 51.2354812 -20.1875 50.4375 C-20.70699219 50.0971875 -21.22648437 49.756875 -21.76171875 49.40625 C-27.89125915 45.14616277 -31.80988337 40.57034989 -34.1875 33.4375 C-34.99697339 26.36380642 -35.29079769 20.07304362 -31.3125 13.9375 C-23.59569693 4.4434938 -11.9936616 -0.15448797 0 0 Z " fill="#FEFEFC" transform="translate(390.1875,205.5625)"/>
<path d="M0 0 C9.9 0 19.8 0 30 0 C30 21.45 30 42.9 30 65 C34.95 65 39.9 65 45 65 C45 71.6 45 78.2 45 85 C40.05 85 35.1 85 30 85 C30 90.94 30 96.88 30 103 C21.09 103 12.18 103 3 103 C3 97.06 3 91.12 3 85 C-11.52 85 -26.04 85 -41 85 C-41 63 -41 63 -37.75 58.1875 C-37.02039063 57.56359375 -36.29078125 56.9396875 -35.5390625 56.296875 C-32.13936779 53.22145886 -29.72277015 49.69592297 -27.125 45.9375 C-26.61179199 45.20160645 -26.09858398 44.46571289 -25.56982422 43.70751953 C-10.75363428 22.91134418 -10.75363428 22.91134418 0 0 Z " fill="#FEFEFC" transform="translate(300,208)"/>
<path d="M0 0 C0.90814453 -0.01224609 1.81628906 -0.02449219 2.75195312 -0.03710938 C14.61388233 -0.06258238 22.72557144 2.48141106 31.484375 10.76953125 C38.14504501 18.19421929 37.46313382 27.65557995 37.25390625 37.01953125 C36.72196201 46.28603332 32.25737917 52.08179676 25.8527832 58.37207031 C22.23232667 61.59352715 18.22805749 64.21391409 14.1875 66.875 C5.36766571 71.94732705 5.36766571 71.94732705 -1.1875 79.1875 C18.6125 79.6825 18.6125 79.6825 38.8125 80.1875 C38.8125 88.4375 38.8125 96.6875 38.8125 105.1875 C14.7225 105.1875 -9.3675 105.1875 -34.1875 105.1875 C-34.1875 78.10416667 -34.1875 78.10416667 -23.1875 66.1875 C-17.24415206 60.34442326 -10.87894366 55.09077715 -4.34765625 49.92578125 C0.74244133 45.82977144 4.99173265 41.85054088 6.16796875 35.16796875 C6.40210852 32.76168663 6.40210852 32.76168663 5.8125 29.1875 C3.09958296 26.32752764 1.36407704 25.28661653 -2.53515625 24.5859375 C-13.32408268 24.51786856 -20.31724985 27.2739999 -29.1875 33.1875 C-29.1875 24.6075 -29.1875 16.0275 -29.1875 7.1875 C-26.795 6.218125 -24.4025 5.24875 -21.9375 4.25 C-21.19081055 3.94586182 -20.44412109 3.64172363 -19.67480469 3.32836914 C-12.7650537 0.54718507 -7.38391906 0.00513128 0 0 Z " fill="#FEFDFB" transform="translate(120.1875,205.8125)"/>
<path d="M0 0 C3.35997062 1.42798751 4.55636585 2.97949411 6.5 6.0625 C8.92526416 13.16428493 8.87219149 20.05182127 8.87060547 27.45776367 C8.87495624 29.72717657 8.91127366 31.99460483 8.94921875 34.26367188 C9.01946563 43.2711703 9.05214957 53.53574858 3.02099609 60.8581543 C1.5 62.0625 1.5 62.0625 -1 62.4375 C-3.99765133 61.9878523 -4.59034442 61.34474773 -6.5 59.0625 C-10.50299488 51.17031473 -9.95926144 42.02664611 -9.89111328 33.42163086 C-9.87500811 31.00121914 -9.89103846 28.58247096 -9.91015625 26.16210938 C-9.93351213 8.86941698 -9.93351213 8.86941698 -4.625 1.4375 C-2.5 0.0625 -2.5 0.0625 0 0 Z " fill="#EDC332" transform="translate(212.5,227.9375)"/>
<path d="M0 0 C4.0259839 2.12693489 6.31214609 3.78421878 8 8 C8.69608513 12.52455337 8.61383227 15.9696387 6.25 19.9375 C2.26671072 23.58884851 -0.48774084 24.45851372 -6.03515625 24.32421875 C-9.16557549 23.80766846 -10.83548354 22.22817871 -13 20 C-15.69932537 15.95101194 -15.53528771 12.75067841 -15 8 C-12.17401056 1.15813083 -7.15470855 -0.87864842 0 0 Z " fill="#EDC435" transform="translate(395,268)"/>
<path d="M0 0 C3.01837013 2.05506051 4.71161159 3.48390094 5.41015625 7.15625 C5.59094502 11.8724788 5.06255433 15.23070236 2 19 C-1.02437339 20.5121867 -3.66241534 20.17263369 -7 20 C-10.38031589 18.81232145 -10.93216817 18.10174775 -13 15 C-13.71207438 10.11483856 -13.72852643 6.1899265 -11.125 1.9375 C-7.27068273 -1.57673045 -5.03454194 -1.19463707 0 0 Z " fill="#EDC334" transform="translate(396,226)"/>
<path d="M0 0 C0.33 0 0.66 0 1 0 C1 9.9 1 19.8 1 30 C-4.94 30 -10.88 30 -17 30 C-15.59289166 27.18578332 -14.19209523 24.60725491 -12.5390625 21.953125 C-12.06726563 21.19 -11.59546875 20.426875 -11.109375 19.640625 C-10.12896739 18.06165274 -9.14722156 16.48351052 -8.1640625 14.90625 C-5.16313126 10.04604615 -2.47937697 5.14676356 0 0 Z " fill="#EEC740" transform="translate(302,243)"/>
</svg>
