<svg xmlns="http://www.w3.org/2000/svg"
     width="155pt" height="155pt"
     viewBox="0 0 155 155" preserveAspectRatio="xMidYMid meet">
  <g transform="translate(0,155) scale(0.1,-0.1)" fill="#fff">
    <path d="M800 1425 l0 -125 125 0 125 0 0 125 0 125 -125 0 -125 0 0 -125z"/>
    <path d="M400 1025 l0 -125 125 0 125 0 0 125 0 125 -125 0 -125 0 0 -125z"/>
    <path d="M800 1025 l0 -125 125 0 125 0 0 125 0 125 -125 0 -125 0 0 -125z"/>
    <path d="M0 625 l0 -125 125 0 125 0 0 125 0 125 -125 0 -125 0 0 -125z"/>
    <path d="M800 625 l0 -125 125 0 125 0 0 125 0 125 -125 0 -125 0 0 -125z"/>
    <path d="M400 620 l0 -120 125 0 125 0 0 120 0 120 -125 0 -125 0 0 -120z"/>
  </g>
</svg>